<svg xmlns="http://www.w3.org/2000/svg" width="800" height="600" viewBox="0 0 800 600">
  <defs>
    <linearGradient id="bg" x1="0%" y1="0%" x2="100%" y2="100%">
      <stop offset="0%" stop-color="#f5f0eb"/>
      <stop offset="100%" stop-color="#e0dcd5"/>
    </linearGradient>
  </defs>
  <rect width="800" height="600" fill="url(#bg)"/>
  <rect x="100" y="350" width="600" height="30" rx="4" fill="#d4c8b0"/>
  <rect x="320" y="220" width="160" height="100" rx="6" fill="#e0ddd8" stroke="#ccc" stroke-width="1"/>
  <rect x="325" y="225" width="150" height="55" rx="2" fill="#f5f5f3"/>
  <rect x="395" y="315" width="10" height="35" fill="#a0a0a0"/>
  <rect x="330" y="390" width="140" height="45" rx="6" fill="#1a1a1a"/>
  <rect x="480" y="395" width="30" height="40" rx="12" fill="#2d2d2d"/>
  <rect x="210" y="300" width="6" height="80" rx="3" fill="#c0b8a8"/>
  <rect x="190" y="295" width="40" height="12" rx="20" fill="#c0b8a8"/>
  <circle cx="620" cy="365" r="20" fill="#6a7b4a"/>
  <line x1="620" y1="335" x2="620" y2="365" stroke="#5a6b3a" stroke-width="3"/>
  <circle cx="610" cy="340" r="8" fill="#7a8b5a"/>
  <circle cx="630" cy="338" r="7" fill="#7a8b5a"/>
  <rect x="280" y="460" width="240" height="2" fill="#ccc" opacity="0.5" rx="1"/>
  <text x="400" y="490" text-anchor="middle" font-family="serif" font-size="13" fill="#aaa" font-style="italic">Minimalist Designer Desk</text>
</svg>
